<svg id="Layer_1" data-name="Layer 1" xmlns="http://www.w3.org/2000/svg" viewBox="0 0 688.73 238.67"><defs><style>.cls-1{fill:#fff;}</style></defs><title>Bliss_Logo</title><path class="cls-1" d="M53.75,87.76h.62A44.58,44.58,0,0,1,72.84,74.25a66.58,66.58,0,0,1,25.62-4.81q29.17,0,49.67,22.35t20.5,56.2v5.9q0,33.54-21.43,56.82T94.73,234a64.32,64.32,0,0,1-27.94-5.9,51.38,51.38,0,0,1-20.18-16.77H46l-5,14.61a5.05,5.05,0,0,1-4.77,3.4H10a5,5,0,0,1-5-5.05V17a5,5,0,0,1,5-5H48.7a5,5,0,0,1,5,5ZM85.11,194q15.21,0,23.75-11.18t8.54-30.43q0-19.56-8.54-31T85.11,109.8q-15.23,0-23.76,11.18t-8.53,30.43q0,19.56,8.53,31.05T85.11,194M191.68,12h38.66a5,5,0,0,1,5,5v156.1q0,11.81,4.82,16.15T256,192.41l.35,0a3.55,3.55,0,0,1,3.55,3.56v29.49a3.55,3.55,0,0,1-2.93,3.5c-4.2.76-7.57,1.3-10.11,1.64a76.71,76.71,0,0,1-10.25.63q-25.14,0-37.56-12.27t-12.42-37.1V17a5,5,0,0,1,5-5M357,120.67v-2.48q0-23,17.69-36t46-13q28.88,0,46.1,12.26t17.23,34a3.42,3.42,0,0,1-3.41,3.42H444.43a5.09,5.09,0,0,1-4.94-4.16,14.18,14.18,0,0,0-4.42-8q-4.81-4.35-13.5-4.35-7.45,0-11.8,3.42a11.2,11.2,0,0,0-4.35,9.31,12.4,12.4,0,0,0,3.57,9.16q3.57,3.57,10.4,4.81,12.74,2.49,20.49,4a106.15,106.15,0,0,1,10.56,2.48,67.4,67.4,0,0,1,15.37,6.37,58.2,58.2,0,0,1,11.95,9.16A35.51,35.51,0,0,1,485.37,164,47.54,47.54,0,0,1,488,179.66v3.11q0,23.6-18.63,37.41T421.57,234q-30.75,0-48-13.2t-18.47-38.65a3.42,3.42,0,0,1,3.42-3.42H394.6a5,5,0,0,1,5,4.26q1.17,7.8,5.85,12.35,5.9,5.74,16.15,5.75,8.69,0,13.66-3.73a12.1,12.1,0,0,0,5-10.25,13.48,13.48,0,0,0-4.19-10.4q-4.19-3.87-12.57-6.05c-1.45-.42-5.59-1.29-12.42-2.64s-12.42-2.64-16.77-3.88a85.74,85.74,0,0,1-14.75-6.37,49.9,49.9,0,0,1-11-8.23,38.09,38.09,0,0,1-8.38-13,42.21,42.21,0,0,1-3.1-15.83m147.23,0v-2.48q0-23,17.7-36t46-13q28.88,0,46.1,12.26t17.24,34a3.42,3.42,0,0,1-3.42,3.42H591.66a5.09,5.09,0,0,1-4.94-4.16,14.18,14.18,0,0,0-4.42-8q-4.81-4.35-13.5-4.35-7.45,0-11.8,3.42a11.2,11.2,0,0,0-4.35,9.31,12.4,12.4,0,0,0,3.57,9.16q3.57,3.57,10.4,4.81,12.74,2.49,20.5,4a106.46,106.46,0,0,1,10.55,2.48A67.4,67.4,0,0,1,613,141.94a58.2,58.2,0,0,1,12,9.16A35.51,35.51,0,0,1,632.6,164a47.54,47.54,0,0,1,2.64,15.68v3.11q0,23.6-18.63,37.41T568.8,234q-30.75,0-48-13.2t-18.48-38.65a3.42,3.42,0,0,1,3.42-3.42h36.06a5,5,0,0,1,5,4.26q1.17,7.8,5.85,12.35,5.9,5.74,16.15,5.75,8.69,0,13.66-3.73a12.11,12.11,0,0,0,5-10.25,13.49,13.49,0,0,0-4.2-10.4q-4.18-3.87-12.57-6.05c-1.45-.42-5.59-1.29-12.42-2.64s-12.42-2.64-16.77-3.88a85.28,85.28,0,0,1-14.74-6.37,49.73,49.73,0,0,1-11-8.23,38.09,38.09,0,0,1-8.38-13,42.21,42.21,0,0,1-3.1-15.83M328.38,74.1h-39a5,5,0,0,0-5.05,5V224.3a5,5,0,0,0,5.05,5h39a5,5,0,0,0,5.05-5V79.14a5,5,0,0,0-5.05-5M670.64,93a6.14,6.14,0,0,0,1.92-5,6.67,6.67,0,0,0-2.18-5.45c-1.44-1.19-3.66-1.79-6.68-1.79h-9.78V106h3.94V95.15H662L668.91,106h4.23L665.9,94.86A8.51,8.51,0,0,0,670.64,93M662,92h-4.11v-8h5.21a13.43,13.43,0,0,1,2,.15,5.34,5.34,0,0,1,1.8.55,3.42,3.42,0,0,1,1.27,1.15,3.67,3.67,0,0,1,.5,2,4.4,4.4,0,0,1-.55,2.34,3.33,3.33,0,0,1-1.48,1.25,6.47,6.47,0,0,1-2.12.48c-.79.07-1.63.1-2.51.1m20.36-7.17A22,22,0,0,0,677.65,78a21.85,21.85,0,0,0-35.34,6.83,20.55,20.55,0,0,0-1.74,8.5,21,21,0,0,0,1.74,8.64,21.74,21.74,0,0,0,4.7,6.88,21.3,21.3,0,0,0,6.94,4.54,22.11,22.11,0,0,0,8.42,1.62,21.82,21.82,0,0,0,8.4-1.62,21,21,0,0,0,6.88-4.54,22.07,22.07,0,0,0,4.68-6.88,21.21,21.21,0,0,0,1.74-8.64,20.75,20.75,0,0,0-1.74-8.5m-3.55,15.88a18.35,18.35,0,0,1-3.76,5.87,17.51,17.51,0,0,1-12.65,5.32,17.61,17.61,0,0,1-7.09-1.43,17.18,17.18,0,0,1-5.66-3.89,18,18,0,0,1-3.76-5.87,19.81,19.81,0,0,1-1.36-7.38,19.18,19.18,0,0,1,1.36-7.23A17.57,17.57,0,0,1,662.37,75a17.26,17.26,0,0,1,7,1.42,17.59,17.59,0,0,1,9.4,9.69,19.17,19.17,0,0,1,1.35,7.23,19.81,19.81,0,0,1-1.35,7.38M309.23,6.18a27.16,27.16,0,1,0,27.16,27.15A27.16,27.16,0,0,0,309.23,6.18Z"/></svg>
